<?xml version="1.0" standalone="no"?><!DOCTYPE svg PUBLIC "-//W3C//DTD SVG 1.1//EN" "http://www.w3.org/Graphics/SVG/1.1/DTD/svg11.dtd"><svg t="1710667099960" class="icon" viewBox="0 0 1024 1024" version="1.1" xmlns="http://www.w3.org/2000/svg" p-id="34918" width="16" height="16" xmlns:xlink="http://www.w3.org/1999/xlink"><path d="M637.856 537.6c34.144-8.544 55.456-21.344 55.456-29.856 0-12.8 10.656-23.456 23.456-23.456s23.456 10.656 23.456 23.456c0 44.8-68.256 76.8-162.144 87.456h-8.544c-21.344 2.144-44.8 4.256-70.4 4.256-132.256 0-238.944-34.144-238.944-91.744 0-40.544 46.944-66.144 121.6-81.056 12.8-2.144 23.456 6.4 27.744 17.056s-6.4 23.456-17.056 27.744c-27.744 6.4-51.2 12.8-68.256 21.344-12.8 6.4-17.056 12.8-17.056 12.8 0 17.056 87.456 44.8 194.144 44.8 23.456 0 44.8-2.144 64-4.256 29.856-21.344 40.544-40.544 34.144-57.6-4.256-10.656-8.544-17.056-23.456-32l-4.256-4.256c-29.856-34.144-40.544-57.6-29.856-96 14.944-51.2 76.8-81.056 183.456-100.256 12.8-2.144 23.456 6.4 25.6 19.2s-6.4 23.456-19.2 25.6c-89.6 14.944-138.656 38.4-145.056 66.144-6.4 21.344-2.144 29.856 19.2 53.344l4.256 4.256c17.056 19.2 25.6 32 32 49.056 6.4 25.6 4.256 44.8-4.256 64zM544 130.144c0-12.8 8.544-23.456 21.344-23.456s23.456 8.544 23.456 21.344c4.256 78.944-19.2 136.544-74.656 170.656-61.856 38.4-72.544 55.456-68.256 93.856 2.144 14.944 14.944 32 38.4 53.344 4.256 4.256 8.544 6.4 12.8 10.656 0 0 10.656 8.544 12.8 10.656 10.656 8.544 17.056 14.944 21.344 19.2 8.544 10.656 6.4 23.456-4.256 32s-23.456 6.4-32-4.256c-2.144-2.144-6.4-6.4-14.944-12.8-2.144-2.144-12.8-10.656-12.8-10.656-6.4-4.256-8.544-8.544-12.8-10.656-32-27.744-51.2-53.344-53.344-83.2-6.4-59.744 14.944-91.744 89.6-138.656 40.544-23.456 57.6-64 53.344-128zM307.2 614.4c0-12.8 10.656-23.456 23.456-23.456s23.456 10.656 23.456 23.456c0 12.8 66.144 34.144 147.2 34.144s147.2-21.344 147.2-34.144c0-12.8 10.656-23.456 23.456-23.456s23.456 10.656 23.456 23.456c0 51.2-87.456 78.944-194.144 78.944S307.136 665.6 307.136 614.4z m23.456 102.4c0-12.8 10.656-23.456 23.456-23.456s23.456 10.656 23.456 23.456c0-2.144 0-2.144 2.144 0 4.256 4.256 12.8 6.4 21.344 10.656 23.456 8.544 55.456 12.8 89.6 12.8s66.144-4.256 89.6-12.8c10.656-4.256 17.056-6.4 21.344-10.656 2.144-2.144 2.144-2.144 2.144 0 0-12.8 10.656-23.456 23.456-23.456s23.456 10.656 23.456 23.456c0 44.8-70.4 68.256-160 68.256s-160-23.456-160-68.256z m-160 68.256c0-12.8 10.656-23.456 23.456-23.456s23.456 10.656 23.456 23.456c0 10.656 25.6 27.744 76.8 42.656 55.456 17.056 134.4 25.6 217.6 25.6s162.144-8.544 219.744-25.6c49.056-14.944 76.8-32 76.8-42.656 0-12.8 10.656-23.456 23.456-23.456s23.456 10.656 23.456 23.456c0 70.4-151.456 113.056-341.344 113.056S170.624 855.456 170.624 785.056zM780.8 544c-12.8 0-23.456-8.544-23.456-21.344s8.544-23.456 21.344-23.456c53.344-2.144 85.344 29.856 83.2 83.2-2.144 59.744-81.056 123.744-128 138.656-12.8 4.256-25.6-2.144-27.744-14.944s2.144-25.6 14.944-27.744c6.4-2.144 32-17.056 51.2-32 27.744-21.344 44.8-44.8 44.8-64 0-27.744-8.544-38.4-36.256-38.4z" fill="#E14C46" p-id="34919"></path></svg>